HIERARCHY
ROOT Hips
{
	OFFSET 0.000000 89.005402 0.000000
	CHANNELS 6 Xposition Yposition Zposition Xrotation Yrotation Zrotation
	JOINT Spine
	{
		OFFSET 0.116900 10.681000 0.373400
		CHANNELS 3 Xrotation Yrotation Zrotation
		JOINT Spine1
		{
			OFFSET 0.000000 13.840401 0.053500
			CHANNELS 3 Xrotation Yrotation Zrotation
			JOINT Spine2
			{
				OFFSET 0.000000 14.712700 -0.366200
				CHANNELS 3 Xrotation Yrotation Zrotation
				JOINT Neck
				{
					OFFSET 0.000000 35.415497 -3.314200
					CHANNELS 3 Xrotation Yrotation Zrotation
					JOINT Head
					{
						OFFSET 0.000000 16.899200 1.218300
						CHANNELS 3 Xrotation Yrotation Zrotation
						JOINT HeadTop_End
						{
							OFFSET 0.000000 22.206207 2.192500
							CHANNELS 3 Xrotation Yrotation Zrotation
							End Site
							{
								OFFSET 0.000000 22.314178 0.000000
							}
						}
					}
				}
				JOINT LeftShoulder
				{
					OFFSET 12.896400 26.716293 -4.548400
					CHANNELS 3 Xrotation Yrotation Zrotation
					JOINT LeftArm
					{
						OFFSET 19.027000 -4.857010 -1.718400
						CHANNELS 3 Xrotation Yrotation Zrotation
						JOINT LeftForeArm
						{
							OFFSET 24.179897 0.000000 0.000000
							CHANNELS 3 Xrotation Yrotation Zrotation
							JOINT LeftHand
							{
								OFFSET 27.156403 0.000000 0.000000
								CHANNELS 3 Xrotation Yrotation Zrotation
								JOINT LeftHandIndex1
								{
									OFFSET 16.441200 0.000000 0.000000
									CHANNELS 3 Xrotation Yrotation Zrotation
									JOINT LeftHandIndex2
									{
										OFFSET 4.821899 0.000000 0.000000
										CHANNELS 3 Xrotation Yrotation Zrotation
										JOINT LeftHandIndex3
										{
											OFFSET 6.386497 0.000000 0.000000
											CHANNELS 3 Xrotation Yrotation Zrotation
											JOINT LeftHandIndex4
											{
												OFFSET 5.188988 0.000000 0.000000
												CHANNELS 3 Xrotation Yrotation Zrotation
												End Site
												{
													OFFSET -0.178703 5.185913 0.000177
												}
											}
										}
									}
								}
								JOINT LeftHandThumb1
								{
									OFFSET 6.534897 -5.032593 5.900300
									CHANNELS 3 Xrotation Yrotation Zrotation
									JOINT LeftHandThumb2
									{
										OFFSET 3.818176 -2.204422 2.204423
										CHANNELS 3 Xrotation Yrotation Zrotation
										JOINT LeftHandThumb3
										{
											OFFSET 3.252098 -1.877594 1.877601
											CHANNELS 3 Xrotation Yrotation Zrotation
											JOINT LeftHandThumb4
											{
												OFFSET 5.251778 -3.032120 3.032117
												CHANNELS 3 Xrotation Yrotation Zrotation
												End Site
												{
													OFFSET 0.000023 6.780014 0.000000
												}
											}
										}
									}
								}
							}
						}
					}
				}
				JOINT RightShoulder
				{
					OFFSET -12.896300 26.716293 -4.548400
					CHANNELS 3 Xrotation Yrotation Zrotation
					JOINT RightArm
					{
						OFFSET -19.027000 -4.857010 -1.718400
						CHANNELS 3 Xrotation Yrotation Zrotation
						JOINT RightForeArm
						{
							OFFSET -24.179897 0.000000 0.000000
							CHANNELS 3 Xrotation Yrotation Zrotation
							JOINT RightHand
							{
								OFFSET -27.156403 0.000000 0.000000
								CHANNELS 3 Xrotation Yrotation Zrotation
								JOINT RightHandThumb1
								{
									OFFSET -6.591202 -4.852203 5.988100
									CHANNELS 3 Xrotation Yrotation Zrotation
									JOINT RightHandThumb2
									{
										OFFSET -3.818176 -2.204422 2.204423
										CHANNELS 3 Xrotation Yrotation Zrotation
										JOINT RightHandThumb3
										{
											OFFSET -3.252098 -1.877594 1.877601
											CHANNELS 3 Xrotation Yrotation Zrotation
											JOINT RightHandThumb4
											{
												OFFSET -5.251778 -3.032120 3.032117
												CHANNELS 3 Xrotation Yrotation Zrotation
												End Site
												{
													OFFSET -0.000023 6.780014 0.000000
												}
											}
										}
									}
								}
								JOINT RightHandIndex1
								{
									OFFSET -16.029404 0.000000 0.000000
									CHANNELS 3 Xrotation Yrotation Zrotation
									JOINT RightHandIndex2
									{
										OFFSET -5.213303 0.000000 0.000000
										CHANNELS 3 Xrotation Yrotation Zrotation
										JOINT RightHandIndex3
										{
											OFFSET -6.386528 0.000000 0.000000
											CHANNELS 3 Xrotation Yrotation Zrotation
											JOINT RightHandIndex4
											{
												OFFSET -5.189026 0.000000 0.000000
												CHANNELS 3 Xrotation Yrotation Zrotation
												End Site
												{
													OFFSET 0.236702 5.183624 0.001972
												}
											}
										}
									}
								}
							}
						}
					}
				}
			}
		}
	}
	JOINT LeftUpLeg
	{
		OFFSET 14.073000 -7.904099 -1.463000
		CHANNELS 3 Xrotation Yrotation Zrotation
		JOINT LeftLeg
		{
			OFFSET -0.109806 -34.073280 4.093200
			CHANNELS 3 Xrotation Yrotation Zrotation
			JOINT LeftFoot
			{
				OFFSET 0.109806 -29.899420 -6.319000
				CHANNELS 3 Xrotation Yrotation Zrotation
				JOINT LeftToeBase
				{
					OFFSET 1.551100 -14.988700 20.535801
					CHANNELS 3 Xrotation Yrotation Zrotation
					JOINT LeftToe_End
					{
						OFFSET 0.221200 0.570800 13.248301
						CHANNELS 3 Xrotation Yrotation Zrotation
						End Site
						{
							OFFSET 0.000000 13.262435 0.000000
						}
					}
				}
			}
		}
	}
	JOINT RightUpLeg
	{
		OFFSET -13.839300 -7.904099 -1.463000
		CHANNELS 3 Xrotation Yrotation Zrotation
		JOINT RightLeg
		{
			OFFSET 0.109694 -34.073219 4.093300
			CHANNELS 3 Xrotation Yrotation Zrotation
			JOINT RightFoot
			{
				OFFSET -0.109694 -29.899384 -6.319200
				CHANNELS 3 Xrotation Yrotation Zrotation
				JOINT RightToeBase
				{
					OFFSET -1.551100 -14.988700 20.535801
					CHANNELS 3 Xrotation Yrotation Zrotation
					JOINT RightToe_End
					{
						OFFSET -0.221200 0.570900 13.248299
						CHANNELS 3 Xrotation Yrotation Zrotation
						End Site
						{
							OFFSET 0.000000 13.262440 0.000000
						}
					}
				}
			}
		}
	}
}
MOTION
Frames: 7
Frame Time: 0.033333
1.012076 86.504303 -0.774852 -42.584361 -83.945996 -37.096882 -2.844638 7.265939 8.154395 -2.514298 7.436030 -4.322099 -1.937206 7.607510 -4.264008 22.014926 33.851606 -14.199125 -0.078419 34.164589 -3.268443 0.000001 0.000000 -0.000000 5.661654 6.796521 1.587640 60.144651 -23.790157 -28.258649 101.705820 -50.067674 105.122615 -39.009782 -17.901779 20.566886 -0.054767 -0.534653 4.888168 0.020144 0.089570 -10.102846 -0.004005 2.004758 2.084080 0.000001 0.000001 -0.000001 -5.311901 -23.821106 -23.960165 1.510412 12.500897 -14.945053 -2.112968 -9.281148 -3.738891 0.000003 -0.000002 -0.000000 25.765388 3.811305 -10.851017 52.885871 50.929521 24.224366 74.919088 49.998354 -70.619942 -1.215731 21.457741 -85.989151 -9.528075 37.566542 0.002691 1.772370 -12.492717 -6.945367 0.548346 -8.830653 -3.832685 0.000000 0.000001 0.000001 -0.102021 4.177166 -9.602744 0.861836 -2.835134 27.194316 -0.053376 -2.729949 6.605350 0.000002 -0.000001 0.000001 -16.578192 -13.710725 -18.144710 17.926544 -41.386537 -3.069139 6.806030 9.612175 13.905767 -12.145475 -0.000044 -0.000037 -0.000001 -0.000002 0.000000 7.877489 -12.868701 -6.885513 32.407588 -21.317748 -1.284196 -14.729031 -2.498411 17.078360 -26.275241 -0.316417 1.604706 -0.000000 0.000001 0.000000 
1.012332 86.506432 -0.774802 -42.584361 -83.945996 -37.096882 -2.844638 7.265939 8.154395 -2.514298 7.436030 -4.322099 -1.937206 7.607510 -4.264008 22.014926 33.851606 -14.199125 -0.078419 34.164589 -3.268443 0.000001 0.000000 -0.000000 5.661654 6.796521 1.587640 60.144651 -23.790157 -28.258649 101.705820 -50.067674 105.122615 -39.009782 -17.901779 20.566886 -0.054767 -0.534653 4.888168 0.020144 0.089570 -10.102846 -0.004005 2.004758 2.084080 0.000001 0.000001 -0.000001 -5.311901 -23.821106 -23.960165 1.510412 12.500897 -14.945053 -2.112968 -9.281148 -3.738891 0.000003 -0.000002 -0.000000 25.765388 3.811305 -10.851017 52.885871 50.929521 24.224366 74.919088 49.998354 -70.619942 -1.215731 21.457741 -85.989151 -9.528075 37.566542 0.002691 1.772370 -12.492717 -6.945367 0.548346 -8.830653 -3.832685 0.000000 0.000001 0.000001 -0.102021 4.177166 -9.602744 0.861836 -2.835134 27.194316 -0.053376 -2.729949 6.605350 0.000002 -0.000001 0.000001 -16.562080 -13.717811 -18.135467 17.886068 -41.393576 -3.083632 6.806031 9.612174 13.905767 -12.145475 -0.000042 -0.000036 -0.000001 0.000001 0.000000 7.892138 -12.870144 -6.884391 32.380919 -21.310632 -1.281506 -14.729030 -2.498406 17.078362 -26.275239 -0.316415 1.604704 -0.000000 -0.000002 -0.000000 
1.012332 86.506432 -0.774802 -42.584361 -83.945996 -37.096882 -2.844638 7.265939 8.154395 -2.514298 7.436030 -4.322099 -1.937206 7.607510 -4.264008 22.014926 33.851606 -14.199125 -0.078419 34.164589 -3.268443 0.000001 0.000000 -0.000000 5.661654 6.796521 1.587640 60.144651 -23.790157 -28.258649 101.705820 -50.067674 105.122615 -39.009782 -17.901779 20.566886 -0.054767 -0.534653 4.888168 0.020144 0.089570 -10.102846 -0.004005 2.004758 2.084080 0.000001 0.000001 -0.000001 -5.311901 -23.821106 -23.960165 1.510412 12.500897 -14.945053 -2.112968 -9.281148 -3.738891 0.000003 -0.000002 -0.000000 25.765388 3.811305 -10.851017 52.885871 50.929521 24.224366 74.919088 49.998354 -70.619942 -1.215731 21.457741 -85.989151 -9.528075 37.566542 0.002691 1.772370 -12.492717 -6.945367 0.548346 -8.830653 -3.832685 0.000000 0.000001 0.000001 -0.102021 4.177166 -9.602744 0.861836 -2.835134 27.194316 -0.053376 -2.729949 6.605350 0.000002 -0.000001 0.000001 -16.562080 -13.717811 -18.135467 17.886068 -41.393576 -3.083632 6.806031 9.612174 13.905767 -12.145475 -0.000042 -0.000036 -0.000001 0.000001 0.000000 7.892138 -12.870144 -6.884391 32.380919 -21.310632 -1.281506 -14.729030 -2.498406 17.078362 -26.275239 -0.316415 1.604704 -0.000000 -0.000002 -0.000000 
1.012332 86.506432 -0.774802 -42.584361 -83.945996 -37.096882 -2.844638 7.265939 8.154395 -2.514298 7.436030 -4.322099 -1.937206 7.607510 -4.264008 22.014926 33.851606 -14.199125 -0.078419 34.164589 -3.268443 0.000001 0.000000 -0.000000 5.661654 6.796521 1.587640 60.144651 -23.790157 -28.258649 101.705820 -50.067674 105.122615 -39.009782 -17.901779 20.566886 -0.054767 -0.534653 4.888168 0.020144 0.089570 -10.102846 -0.004005 2.004758 2.084080 0.000001 0.000001 -0.000001 -5.311901 -23.821106 -23.960165 1.510412 12.500897 -14.945053 -2.112968 -9.281148 -3.738891 0.000003 -0.000002 -0.000000 25.765388 3.811305 -10.851017 52.885871 50.929521 24.224366 74.919088 49.998354 -70.619942 -1.215731 21.457741 -85.989151 -9.528075 37.566542 0.002691 1.772370 -12.492717 -6.945367 0.548346 -8.830653 -3.832685 0.000000 0.000001 0.000001 -0.102021 4.177166 -9.602744 0.861836 -2.835134 27.194316 -0.053376 -2.729949 6.605350 0.000002 -0.000001 0.000001 -16.562080 -13.717811 -18.135467 17.886068 -41.393576 -3.083632 6.806031 9.612174 13.905767 -12.145475 -0.000042 -0.000036 -0.000001 0.000001 0.000000 7.892138 -12.870144 -6.884391 32.380919 -21.310632 -1.281506 -14.729030 -2.498406 17.078362 -26.275239 -0.316415 1.604704 -0.000000 -0.000002 -0.000000 
1.012332 86.506432 -0.774802 -42.584361 -83.945996 -37.096882 -2.844638 7.265939 8.154395 -2.514298 7.436030 -4.322099 -1.937206 7.607510 -4.264008 22.014926 33.851606 -14.199125 -0.078419 34.164589 -3.268443 0.000001 0.000000 -0.000000 5.661654 6.796521 1.587640 60.144651 -23.790157 -28.258649 101.705820 -50.067674 105.122615 -39.009782 -17.901779 20.566886 -0.054767 -0.534653 4.888168 0.020144 0.089570 -10.102846 -0.004005 2.004758 2.084080 0.000001 0.000001 -0.000001 -5.311901 -23.821106 -23.960165 1.510412 12.500897 -14.945053 -2.112968 -9.281148 -3.738891 0.000003 -0.000002 -0.000000 25.765388 3.811305 -10.851017 52.885871 50.929521 24.224366 74.919088 49.998354 -70.619942 -1.215731 21.457741 -85.989151 -9.528075 37.566542 0.002691 1.772370 -12.492717 -6.945367 0.548346 -8.830653 -3.832685 0.000000 0.000001 0.000001 -0.102021 4.177166 -9.602744 0.861836 -2.835134 27.194316 -0.053376 -2.729949 6.605350 0.000002 -0.000001 0.000001 -16.562080 -13.717811 -18.135467 17.886068 -41.393576 -3.083632 6.806031 9.612174 13.905767 -12.145475 -0.000042 -0.000036 -0.000001 0.000001 0.000000 7.892138 -12.870144 -6.884391 32.380919 -21.310632 -1.281506 -14.729030 -2.498406 17.078362 -26.275239 -0.316415 1.604704 -0.000000 -0.000002 -0.000000 
1.012332 86.506432 -0.774802 -42.584361 -83.945996 -37.096882 -2.844638 7.265939 8.154395 -2.514298 7.436030 -4.322099 -1.937206 7.607510 -4.264008 22.014926 33.851606 -14.199125 -0.078419 34.164589 -3.268443 0.000001 0.000000 -0.000000 5.661654 6.796521 1.587640 60.144651 -23.790157 -28.258649 101.705820 -50.067674 105.122615 -39.009782 -17.901779 20.566886 -0.054767 -0.534653 4.888168 0.020144 0.089570 -10.102846 -0.004005 2.004758 2.084080 0.000001 0.000001 -0.000001 -5.311901 -23.821106 -23.960165 1.510412 12.500897 -14.945053 -2.112968 -9.281148 -3.738891 0.000003 -0.000002 -0.000000 25.765388 3.811305 -10.851017 52.885871 50.929521 24.224366 74.919088 49.998354 -70.619942 -1.215731 21.457741 -85.989151 -9.528075 37.566542 0.002691 1.772370 -12.492717 -6.945367 0.548346 -8.830653 -3.832685 0.000000 0.000001 0.000001 -0.102021 4.177166 -9.602744 0.861836 -2.835134 27.194316 -0.053376 -2.729949 6.605350 0.000002 -0.000001 0.000001 -16.562080 -13.717811 -18.135467 17.886068 -41.393576 -3.083632 6.806031 9.612174 13.905767 -12.145475 -0.000042 -0.000036 -0.000001 0.000001 0.000000 7.892138 -12.870144 -6.884391 32.380919 -21.310632 -1.281506 -14.729030 -2.498406 17.078362 -26.275239 -0.316415 1.604704 -0.000000 -0.000002 -0.000000 
1.012332 86.506432 -0.774802 -42.584361 -83.945996 -37.096882 -2.844638 7.265939 8.154395 -2.514298 7.436030 -4.322099 -1.937206 7.607510 -4.264008 22.014926 33.851606 -14.199125 -0.078419 34.164589 -3.268443 0.000001 0.000000 -0.000000 5.661654 6.796521 1.587640 60.144651 -23.790157 -28.258649 101.705820 -50.067674 105.122615 -39.009782 -17.901779 20.566886 -0.054767 -0.534653 4.888168 0.020144 0.089570 -10.102846 -0.004005 2.004758 2.084080 0.000001 0.000001 -0.000001 -5.311901 -23.821106 -23.960165 1.510412 12.500897 -14.945053 -2.112968 -9.281148 -3.738891 0.000003 -0.000002 -0.000000 25.765388 3.811305 -10.851017 52.885871 50.929521 24.224366 74.919088 49.998354 -70.619942 -1.215731 21.457741 -85.989151 -9.528075 37.566542 0.002691 1.772370 -12.492717 -6.945367 0.548346 -8.830653 -3.832685 0.000000 0.000001 0.000001 -0.102021 4.177166 -9.602744 0.861836 -2.835134 27.194316 -0.053376 -2.729949 6.605350 0.000002 -0.000001 0.000001 -16.562080 -13.717811 -18.135467 17.886068 -41.393576 -3.083632 6.806031 9.612174 13.905767 -12.145475 -0.000042 -0.000036 -0.000001 0.000001 0.000000 7.892138 -12.870144 -6.884391 32.380919 -21.310632 -1.281506 -14.729030 -2.498406 17.078362 -26.275239 -0.316415 1.604704 -0.000000 -0.000002 -0.000000 
